<?xml version="1.0" standalone="no"?>
<!DOCTYPE svg PUBLIC "-//W3C//DTD SVG 20010904//EN"
 "http://www.w3.org/TR/2001/REC-SVG-20010904/DTD/svg10.dtd">
<svg version="1.0" xmlns="http://www.w3.org/2000/svg"
 width="512.000000pt" height="512.000000pt" viewBox="0 0 512.000000 512.000000"
 preserveAspectRatio="xMidYMid meet">
<metadata>
Created by potrace 1.11, written by Peter Selinger 2001-2013
</metadata>
<g transform="translate(0.000000,512.000000) scale(0.100000,-0.100000)"
fill="#000000" stroke="none">
<path d="M1978 3821 c-79 -26 -145 -74 -203 -152 -19 -26 -25 -27 -135 -32
-130 -7 -139 -8 -269 -43 -257 -67 -536 -217 -668 -358 -124 -132 -164 -284
-119 -451 4 -15 -10 -37 -55 -85 -195 -206 -354 -451 -463 -712 -54 -128 -67
-192 -61 -283 5 -88 26 -154 67 -219 87 -136 216 -208 360 -201 68 3 67 3 178
35 41 12 89 26 105 30 17 5 68 20 115 34 177 52 539 158 626 183 l92 26 55
-44 c144 -114 315 -191 427 -190 62 0 169 22 204 41 29 16 30 16 65 -23 115
-128 323 -125 437 5 28 32 33 34 55 23 35 -18 162 -45 217 -46 113 -3 265 65
435 193 l78 59 62 -19 c34 -11 71 -22 82 -25 11 -3 81 -23 155 -45 74 -22 223
-66 330 -97 243 -70 385 -112 428 -126 52 -17 165 -19 221 -4 177 46 309 219
317 416 4 116 -24 213 -121 408 -113 229 -245 416 -430 609 l-90 94 0 86 c-1
188 -85 317 -295 457 -115 77 -290 161 -422 204 -165 53 -236 65 -378 66
l-105 0 -24 35 c-52 76 -132 133 -217 155 -46 12 -145 15 -528 14 -425 0 -477
-2 -528 -18z"/>
</g>
</svg>
